# xmcd CD database file
#
# Track frame offsets:
#	150
#	22692
#	43210
#	67852
#	92815
#	119160
#	142737
#	165830
#	189050
#
# Disc length: 2791 seconds
#
# Revision: 0
# Processed by: cddbd v1.5.1PL0 Copyright (c) Steve Scherf et al.
# Submitted via: CDex 1.51
#
DISCID=650ae509
DTITLE=Amedeo Bianchi - Coming Home
DYEAR=2002
DGENRE=Jazz
TTITLE0=Funky Dreams
TTITLE1=Lost and Found
TTITLE2=Slipstream
TTITLE3=Coming Home
TTITLE4=Sax On Line
TTITLE5=Dusty Roads
TTITLE6=Spring Water
TTITLE7=Miami Nights
TTITLE8=Something Old ... Something New
EXTD=YEAR: 2002
EXTT0=
EXTT1=
EXTT2=
EXTT3=
EXTT4=
EXTT5=
EXTT6=
EXTT7=
EXTT8=
PLAYORDER=
